<svg xmlns="http://www.w3.org/2000/svg" xml:space="preserve" fill-rule="evenodd" stroke-linejoin="round" stroke-miterlimit="2" clip-rule="evenodd" viewBox="0 0 900 300">
  <path fill="#ed2939" fill-rule="nonzero" d="M0 0h900v300H0z"/>
  <path fill="#fff" d="M215 257.6A110.6 110.6 0 0 1 79.8 150 110.5 110.5 0 0 1 215 42.4a110.5 110.5 0 0 0 0 215.2Zm29-179.8 6.5-19.9 6.5 19.9h20.8L261 90l6.5 19.8-16.9-12.3-16.9 12.3 6.5-19.8-17-12.3h21Zm60.3 43.7 6.4-19.8 6.5 19.8H338l-17 12.3 6.5 19.9-16.9-12.3-16.9 12.3 6.5-19.9-17-12.3h21Zm-97.5 70.9 6.5-20 6.4 20h21l-17 12.2 6.5 19.9-17-12.3-16.8 12.3 6.4-19.9-16.9-12.2h21Zm74.5 0 6.4-20 6.5 20H315l-17 12.2 6.5 19.9-16.9-12.3-16.9 12.3 6.5-19.9-17-12.2h21Zm-97.5-70.9 6.5-19.8 6.4 19.8h21l-17 12.3 6.5 19.9-17-12.3-16.8 12.3 6.4-19.9-16.9-12.3h21Z"/>
</svg>
