<svg xmlns="http://www.w3.org/2000/svg" viewBox="0 0 700 1200" preserveAspectRatio="xMaxYMid slice">
<defs>
  <pattern id="batik-right" patternUnits="userSpaceOnUse" width="100" height="100" patternTransform="rotate(5)">
    <!-- Main flower -->
    <circle cx="50" cy="50" r="10" fill="none" stroke="rgba(255,255,255,0.22)" stroke-width="1.2"/>
    <circle cx="50" cy="50" r="4" fill="rgba(255,255,255,0.12)"/>
    <!-- 5 petals -->
    <ellipse cx="50" cy="36" rx="5" ry="9" fill="none" stroke="rgba(255,255,255,0.18)" stroke-width="0.8" transform="rotate(0,50,50)"/>
    <ellipse cx="50" cy="36" rx="5" ry="9" fill="none" stroke="rgba(255,255,255,0.18)" stroke-width="0.8" transform="rotate(72,50,50)"/>
    <ellipse cx="50" cy="36" rx="5" ry="9" fill="none" stroke="rgba(255,255,255,0.18)" stroke-width="0.8" transform="rotate(144,50,50)"/>
    <ellipse cx="50" cy="36" rx="5" ry="9" fill="none" stroke="rgba(255,255,255,0.18)" stroke-width="0.8" transform="rotate(216,50,50)"/>
    <ellipse cx="50" cy="36" rx="5" ry="9" fill="none" stroke="rgba(255,255,255,0.18)" stroke-width="0.8" transform="rotate(288,50,50)"/>
    <!-- Leaf shapes -->
    <path d="M15,15 Q25,5 35,15 Q25,25 15,15Z" fill="rgba(255,255,255,0.1)" stroke="rgba(255,255,255,0.16)" stroke-width="0.7"/>
    <path d="M70,80 Q80,70 90,80 Q80,90 70,80Z" fill="rgba(255,255,255,0.1)" stroke="rgba(255,255,255,0.16)" stroke-width="0.7"/>
    <!-- Vine curves -->
    <path d="M5,50 Q20,42 35,50" fill="none" stroke="rgba(255,255,255,0.13)" stroke-width="0.8"/>
    <path d="M65,50 Q80,42 95,50" fill="none" stroke="rgba(255,255,255,0.13)" stroke-width="0.8"/>
    <!-- Small buds -->
    <circle cx="20" cy="45" r="1.5" fill="rgba(255,255,255,0.13)"/>
    <circle cx="80" cy="55" r="1.5" fill="rgba(255,255,255,0.13)"/>
    <circle cx="10" cy="85" r="1.5" fill="rgba(255,255,255,0.13)"/>
    <circle cx="90" cy="15" r="1.5" fill="rgba(255,255,255,0.13)"/>
    <!-- Small flower -->
    <circle cx="15" cy="85" r="5" fill="none" stroke="rgba(255,255,255,0.15)" stroke-width="0.7"/>
    <circle cx="85" cy="15" r="5" fill="none" stroke="rgba(255,255,255,0.15)" stroke-width="0.7"/>
  </pattern>
</defs>
<path d="
            M 610,0
            C 550,180.0 670,420.0 568.0,600.0
            C 628.0,780.0 550,1020.0 610,1200
            L 700,1200
            C 640,1020.0 718.0,780.0 658.0,600.0
            C 760,420.0 640,180.0 700,0
            Z
        " fill="#FF69B4"/>
<path d="
            M 610,0
            C 550,180.0 670,420.0 568.0,600.0
            C 628.0,780.0 550,1020.0 610,1200
            L 700,1200
            C 640,1020.0 718.0,780.0 658.0,600.0
            C 760,420.0 640,180.0 700,0
            Z
        " fill="url(#batik-right)"/>
<path d="
            M 520,0
            C 460,180.0 580,420.0 478.0,600.0
            C 538.0,780.0 460,1020.0 520,1200
            L 610,1200
            C 550,1020.0 628.0,780.0 568.0,600.0
            C 670,420.0 550,180.0 610,0
            Z
        " fill="#7B3FF2"/>
<path d="
            M 520,0
            C 460,180.0 580,420.0 478.0,600.0
            C 538.0,780.0 460,1020.0 520,1200
            L 610,1200
            C 550,1020.0 628.0,780.0 568.0,600.0
            C 670,420.0 550,180.0 610,0
            Z
        " fill="url(#batik-right)"/>
<path d="
            M 430,0
            C 370,180.0 490,420.0 388.0,600.0
            C 448.0,780.0 370,1020.0 430,1200
            L 520,1200
            C 460,1020.0 538.0,780.0 478.0,600.0
            C 580,420.0 460,180.0 520,0
            Z
        " fill="#40E0D0"/>
<path d="
            M 430,0
            C 370,180.0 490,420.0 388.0,600.0
            C 448.0,780.0 370,1020.0 430,1200
            L 520,1200
            C 460,1020.0 538.0,780.0 478.0,600.0
            C 580,420.0 460,180.0 520,0
            Z
        " fill="url(#batik-right)"/>
<path d="
            M 340,0
            C 280,180.0 400,420.0 298.0,600.0
            C 358.0,780.0 280,1020.0 340,1200
            L 430,1200
            C 370,1020.0 448.0,780.0 388.0,600.0
            C 490,420.0 370,180.0 430,0
            Z
        " fill="#FFD700"/>
<path d="
            M 340,0
            C 280,180.0 400,420.0 298.0,600.0
            C 358.0,780.0 280,1020.0 340,1200
            L 430,1200
            C 370,1020.0 448.0,780.0 388.0,600.0
            C 490,420.0 370,180.0 430,0
            Z
        " fill="url(#batik-right)"/>
<path d="
            M 250,0
            C 190,180.0 310,420.0 208.0,600.0
            C 268.0,780.0 190,1020.0 250,1200
            L 340,1200
            C 280,1020.0 358.0,780.0 298.0,600.0
            C 400,420.0 280,180.0 340,0
            Z
        " fill="#FF8C42"/>
<path d="
            M 250,0
            C 190,180.0 310,420.0 208.0,600.0
            C 268.0,780.0 190,1020.0 250,1200
            L 340,1200
            C 280,1020.0 358.0,780.0 298.0,600.0
            C 400,420.0 280,180.0 340,0
            Z
        " fill="url(#batik-right)"/>
</svg>