<svg xmlns="http://www.w3.org/2000/svg" viewBox="0 0 700 1200" preserveAspectRatio="xMinYMid slice">
<defs>
  <pattern id="batik-left" patternUnits="userSpaceOnUse" width="100" height="100" patternTransform="rotate(5)">
    <!-- Main flower -->
    <circle cx="50" cy="50" r="10" fill="none" stroke="rgba(255,255,255,0.22)" stroke-width="1.2"/>
    <circle cx="50" cy="50" r="4" fill="rgba(255,255,255,0.12)"/>
    <!-- 5 petals -->
    <ellipse cx="50" cy="36" rx="5" ry="9" fill="none" stroke="rgba(255,255,255,0.18)" stroke-width="0.8" transform="rotate(0,50,50)"/>
    <ellipse cx="50" cy="36" rx="5" ry="9" fill="none" stroke="rgba(255,255,255,0.18)" stroke-width="0.8" transform="rotate(72,50,50)"/>
    <ellipse cx="50" cy="36" rx="5" ry="9" fill="none" stroke="rgba(255,255,255,0.18)" stroke-width="0.8" transform="rotate(144,50,50)"/>
    <ellipse cx="50" cy="36" rx="5" ry="9" fill="none" stroke="rgba(255,255,255,0.18)" stroke-width="0.8" transform="rotate(216,50,50)"/>
    <ellipse cx="50" cy="36" rx="5" ry="9" fill="none" stroke="rgba(255,255,255,0.18)" stroke-width="0.8" transform="rotate(288,50,50)"/>
    <!-- Leaf shapes -->
    <path d="M15,15 Q25,5 35,15 Q25,25 15,15Z" fill="rgba(255,255,255,0.1)" stroke="rgba(255,255,255,0.16)" stroke-width="0.7"/>
    <path d="M70,80 Q80,70 90,80 Q80,90 70,80Z" fill="rgba(255,255,255,0.1)" stroke="rgba(255,255,255,0.16)" stroke-width="0.7"/>
    <!-- Vine curves -->
    <path d="M5,50 Q20,42 35,50" fill="none" stroke="rgba(255,255,255,0.13)" stroke-width="0.8"/>
    <path d="M65,50 Q80,42 95,50" fill="none" stroke="rgba(255,255,255,0.13)" stroke-width="0.8"/>
    <!-- Small buds -->
    <circle cx="20" cy="45" r="1.5" fill="rgba(255,255,255,0.13)"/>
    <circle cx="80" cy="55" r="1.5" fill="rgba(255,255,255,0.13)"/>
    <circle cx="10" cy="85" r="1.5" fill="rgba(255,255,255,0.13)"/>
    <circle cx="90" cy="15" r="1.5" fill="rgba(255,255,255,0.13)"/>
    <!-- Small flower -->
    <circle cx="15" cy="85" r="5" fill="none" stroke="rgba(255,255,255,0.15)" stroke-width="0.7"/>
    <circle cx="85" cy="15" r="5" fill="none" stroke="rgba(255,255,255,0.15)" stroke-width="0.7"/>
  </pattern>
</defs>
<path d="
            M 0,0
            C 60,180.0 -60,420.0 42.0,600.0
            C -18.0,780.0 60,1020.0 0,1200
            L 90,1200
            C 150,1020.0 72.0,780.0 132.0,600.0
            C 30,420.0 150,180.0 90,0
            Z
        " fill="#FF69B4"/>
<path d="
            M 0,0
            C 60,180.0 -60,420.0 42.0,600.0
            C -18.0,780.0 60,1020.0 0,1200
            L 90,1200
            C 150,1020.0 72.0,780.0 132.0,600.0
            C 30,420.0 150,180.0 90,0
            Z
        " fill="url(#batik-left)"/>
<path d="
            M 90,0
            C 150,180.0 30,420.0 132.0,600.0
            C 72.0,780.0 150,1020.0 90,1200
            L 180,1200
            C 240,1020.0 162.0,780.0 222.0,600.0
            C 120,420.0 240,180.0 180,0
            Z
        " fill="#7B3FF2"/>
<path d="
            M 90,0
            C 150,180.0 30,420.0 132.0,600.0
            C 72.0,780.0 150,1020.0 90,1200
            L 180,1200
            C 240,1020.0 162.0,780.0 222.0,600.0
            C 120,420.0 240,180.0 180,0
            Z
        " fill="url(#batik-left)"/>
<path d="
            M 180,0
            C 240,180.0 120,420.0 222.0,600.0
            C 162.0,780.0 240,1020.0 180,1200
            L 270,1200
            C 330,1020.0 252.0,780.0 312.0,600.0
            C 210,420.0 330,180.0 270,0
            Z
        " fill="#FFD700"/>
<path d="
            M 180,0
            C 240,180.0 120,420.0 222.0,600.0
            C 162.0,780.0 240,1020.0 180,1200
            L 270,1200
            C 330,1020.0 252.0,780.0 312.0,600.0
            C 210,420.0 330,180.0 270,0
            Z
        " fill="url(#batik-left)"/>
<path d="
            M 270,0
            C 330,180.0 210,420.0 312.0,600.0
            C 252.0,780.0 330,1020.0 270,1200
            L 360,1200
            C 420,1020.0 342.0,780.0 402.0,600.0
            C 300,420.0 420,180.0 360,0
            Z
        " fill="#40E0D0"/>
<path d="
            M 270,0
            C 330,180.0 210,420.0 312.0,600.0
            C 252.0,780.0 330,1020.0 270,1200
            L 360,1200
            C 420,1020.0 342.0,780.0 402.0,600.0
            C 300,420.0 420,180.0 360,0
            Z
        " fill="url(#batik-left)"/>
<path d="
            M 360,0
            C 420,180.0 300,420.0 402.0,600.0
            C 342.0,780.0 420,1020.0 360,1200
            L 450,1200
            C 510,1020.0 432.0,780.0 492.0,600.0
            C 390,420.0 510,180.0 450,0
            Z
        " fill="#FF8C42"/>
<path d="
            M 360,0
            C 420,180.0 300,420.0 402.0,600.0
            C 342.0,780.0 420,1020.0 360,1200
            L 450,1200
            C 510,1020.0 432.0,780.0 492.0,600.0
            C 390,420.0 510,180.0 450,0
            Z
        " fill="url(#batik-left)"/>
</svg>